<svg width="155" height="30" viewBox="0 0 155 30" fill="none" xmlns="http://www.w3.org/2000/svg">
<mask id="mask0_4_197" style="mask-type:alpha" maskUnits="userSpaceOnUse" x="5" y="5" width="20" height="19">
<path fill-rule="evenodd" clip-rule="evenodd" d="M15 20.27L21.18 24L19.54 16.97L25 12.24L17.81 11.63L15 5L12.19 11.63L5 12.24L10.46 16.97L8.82 24L15 20.27Z" fill="white"/>
</mask>
<g mask="url(#mask0_4_197)">
<rect x="2" y="2" width="26" height="26" fill="#4D4D4D"/>
</g>
<mask id="mask1_4_197" style="mask-type:alpha" maskUnits="userSpaceOnUse" x="30" y="5" width="20" height="19">
<path fill-rule="evenodd" clip-rule="evenodd" d="M40 20.27L46.18 24L44.54 16.97L50 12.24L42.81 11.63L40 5L37.19 11.63L30 12.24L35.46 16.97L33.82 24L40 20.27Z" fill="white"/>
</mask>
<g mask="url(#mask1_4_197)">
<rect x="27" y="2" width="26" height="26" fill="#4D4D4D"/>
</g>
<mask id="mask2_4_197" style="mask-type:alpha" maskUnits="userSpaceOnUse" x="55" y="5" width="20" height="19">
<path fill-rule="evenodd" clip-rule="evenodd" d="M65 20.27L71.18 24L69.54 16.97L75 12.24L67.81 11.63L65 5L62.19 11.63L55 12.24L60.46 16.97L58.82 24L65 20.27Z" fill="white"/>
</mask>
<g mask="url(#mask2_4_197)">
<rect x="52" y="2" width="26" height="26" fill="#4D4D4D"/>
</g>
<mask id="mask3_4_197" style="mask-type:alpha" maskUnits="userSpaceOnUse" x="80" y="5" width="20" height="19">
<path fill-rule="evenodd" clip-rule="evenodd" d="M100 12.24L92.81 11.62L90 5L87.19 11.63L80 12.24L85.46 16.97L83.82 24L90 20.27L96.18 24L94.55 16.97L100 12.24ZM90 18.4V9.1L91.71 13.14L96.09 13.52L92.77 16.4L93.77 20.68L90 18.4Z" fill="white"/>
</mask>
<g mask="url(#mask3_4_197)">
<rect x="77" y="2" width="26" height="26" fill="#4D4D4D"/>
</g>
<mask id="mask4_4_197" style="mask-type:alpha" maskUnits="userSpaceOnUse" x="105" y="5" width="20" height="19">
<path fill-rule="evenodd" clip-rule="evenodd" d="M125 12.24L117.81 11.62L115 5L112.19 11.63L105 12.24L110.46 16.97L108.82 24L115 20.27L121.18 24L119.55 16.97L125 12.24ZM115 18.4L111.24 20.67L112.24 16.39L108.92 13.51L113.3 13.13L115 9.1L116.71 13.14L121.09 13.52L117.77 16.4L118.77 20.68L115 18.4Z" fill="white"/>
</mask>
<g mask="url(#mask4_4_197)">
<rect x="102" y="2" width="26" height="26" fill="#4D4D4D"/>
</g>
<path d="M141.196 19H143.428V10.504H141.82C141.748 10.752 141.656 10.964 141.544 11.14C141.432 11.308 141.288 11.444 141.112 11.548C140.936 11.644 140.724 11.716 140.476 11.764C140.228 11.804 139.932 11.824 139.588 11.824V13.216H141.196V19ZM147.034 13.384H149.122V13.024C149.122 12.784 149.138 12.592 149.17 12.448C149.21 12.296 149.258 12.18 149.314 12.1C149.378 12.02 149.446 11.968 149.518 11.944C149.59 11.912 149.666 11.896 149.746 11.896C149.922 11.896 150.062 11.964 150.166 12.1C150.27 12.236 150.322 12.484 150.322 12.844C150.322 13.164 150.274 13.424 150.178 13.624C150.09 13.816 149.938 14.02 149.722 14.236L148.234 15.748C147.746 16.252 147.41 16.772 147.226 17.308C147.05 17.836 146.962 18.4 146.962 19H152.554V17.32H149.626C149.666 17.192 149.742 17.068 149.854 16.948C149.974 16.828 150.082 16.72 150.178 16.624L151.498 15.34C151.818 15.02 152.074 14.664 152.266 14.272C152.458 13.88 152.554 13.396 152.554 12.82C152.554 12.5 152.514 12.2 152.434 11.92C152.362 11.64 152.222 11.396 152.014 11.188C151.814 10.972 151.538 10.804 151.186 10.684C150.834 10.564 150.378 10.504 149.818 10.504C149.234 10.504 148.762 10.572 148.402 10.708C148.042 10.844 147.762 11.04 147.562 11.296C147.362 11.544 147.226 11.848 147.154 12.208C147.082 12.56 147.042 12.952 147.034 13.384Z" fill="#B3B3B3"/>
</svg>
